<svg width="88" height="19" viewBox="0 0 88 19" fill="none" xmlns="http://www.w3.org/2000/svg">
<path d="M10 15.27L16.18 19L14.54 11.97L20 7.24L12.81 6.63L10 0L7.19 6.63L0 7.24L5.46 11.97L3.82 19L10 15.27Z" fill="#2879BD"/>
<path d="M30 15.27L36.18 19L34.54 11.97L40 7.24L32.81 6.63L30 0L27.19 6.63L20 7.24L25.46 11.97L23.82 19L30 15.27Z" fill="#2879BD"/>
<path d="M50 15.27L56.18 19L54.54 11.97L60 7.24L52.81 6.63L50 0L47.19 6.63L40 7.24L45.46 11.97L43.82 19L50 15.27Z" fill="#2879BD"/>
<path fill-rule="evenodd" clip-rule="evenodd" d="M88 0L85.19 6.63L78 7.24L83.46 11.97L81.82 19L88 15.27V0Z" fill="#2879BD"/>
<path d="M70 15.27L76.18 19L74.54 11.97L80 7.24L72.81 6.63L70 0L67.19 6.63L60 7.24L65.46 11.97L63.82 19L70 15.27Z" fill="#2879BD"/>
</svg>
