<svg width="94" height="94" viewBox="0 0 94 94" fill="none" xmlns="http://www.w3.org/2000/svg">
<path d="M9.58027 79.6037C9.82682 81.0054 10.4916 82.2999 11.4872 83.317C12.4828 84.3341 13.7628 85.0263 15.1589 85.3027C15.4374 85.357 15.7188 85.3945 16.0018 85.4151H16.4272H23.844C36.4783 85.4151 49.1126 85.3268 60.1657 85.1422L68.1283 84.9897H69.0755H69.541H70.1431C71.3395 84.8717 72.4802 84.4255 73.4391 83.7003C74.398 82.9751 75.1379 81.9991 75.5773 80.8799C75.8441 80.1906 75.9881 79.4598 76.0027 78.7207C76.0027 78.3194 76.0027 78.1187 76.0027 77.8297V77.027L75.8823 73.9848C75.8127 72.2831 75.7378 70.7259 75.6575 69.3132H79.4061H79.7432C79.9675 69.294 80.1901 69.2592 80.4094 69.2089C81.0692 69.0528 81.6879 68.7571 82.2238 68.3417C82.7596 67.9263 83.2002 67.4009 83.5158 66.8008C83.7091 66.3985 83.8468 65.9719 83.9252 65.5325C83.9696 65.3154 83.9991 65.0955 84.0135 64.8743V64.5452V62.9399V60.1064L83.9252 54.5839V53.9096V53.725V53.428C83.9076 53.2284 83.8781 53.0301 83.8369 52.834C83.6651 52.0594 83.2944 51.3429 82.7613 50.7551C82.2432 50.1799 81.5851 49.7485 80.8509 49.5029C80.2316 49.3064 79.5804 49.2301 78.9325 49.2781L75.6656 49.3744C75.8421 46.9664 75.9947 43.9804 76.1231 40.5449V39.8706C76.1413 39.5712 76.1413 39.271 76.1231 38.9716C76.0585 38.3412 75.8988 37.7241 75.6495 37.1415C75.2366 36.1999 74.6081 35.3686 73.8147 34.7146C73.0213 34.0607 72.0853 33.6024 71.0822 33.3769C70.4436 33.2426 69.7923 33.178 69.1397 33.1842H68.9069C68.9069 32.9836 68.9792 32.7668 69.0113 32.5501C69.0835 32.0926 69.1477 31.6029 69.2039 31.0892L69.2842 30.2865V29.8772C69.2939 29.7034 69.2939 29.5292 69.2842 29.3554C69.2799 28.4684 69.0773 27.5935 68.6912 26.7949C68.3051 25.9963 67.7453 25.2942 67.0527 24.74C66.3059 24.1393 65.4291 23.7214 64.4921 23.5199C64.2513 23.5199 64.0105 23.4316 63.7697 23.4155C63.5289 23.3995 63.2319 23.4155 63.1115 23.4155H62.2526C58.3286 23.3451 54.4062 23.6298 50.5334 24.2664C47.9407 21.4891 45.051 18.5111 42.1132 15.5652C41.9082 15.3601 41.6648 15.1975 41.3969 15.0865C41.1291 14.9755 40.8419 14.9183 40.552 14.9183C40.262 14.9183 39.9749 14.9755 39.707 15.0865C39.4391 15.1975 39.1957 15.3601 38.9907 15.5652C35.9566 18.5994 32.9786 21.6737 30.3137 24.5232C27.9056 24.3466 24.8795 24.1861 21.444 24.0496L18.6667 23.9453L17.2138 23.8971H16.4754C16.1484 23.8886 15.8212 23.902 15.4961 23.9373C14.067 24.0844 12.7267 24.6996 11.6833 25.6871C10.5996 26.7452 9.90881 28.141 9.72475 29.6444C9.5866 30.9266 9.81776 32.2216 10.391 33.3769C10.0779 39.4773 9.87726 47.6888 9.71673 57.0401C9.6204 62.5626 9.54816 68.4864 9.5 74.6029V76.9066V78.3274V78.7368C9.50621 79.0273 9.53304 79.317 9.58027 79.6037ZM62.2526 27.8062H63.5048C63.5771 27.8062 63.6493 27.8062 63.7296 27.8062C64.0159 27.8585 64.2889 27.9676 64.5323 28.1273C64.7862 28.2914 65.005 28.5043 65.1759 28.7537C65.3468 29.0032 65.4663 29.2841 65.5276 29.5802C65.554 29.6799 65.5701 29.7821 65.5758 29.8852V30.2946L65.656 31.0972C65.7122 31.611 65.7764 32.1006 65.8487 32.5581C65.8487 32.7508 65.9129 32.9434 65.945 33.12C63.4567 33.0638 60.864 33.0237 58.1991 32.9836C56.9629 31.3782 55.3254 29.5079 53.3829 27.3647C56.3296 27.6687 59.2903 27.8161 62.2526 27.8062ZM40.5801 20.2128C45.5327 25.1092 50.4852 29.7407 54.2258 32.9354C48.7113 32.8712 42.9881 32.8471 37.2168 32.8471C33.7893 32.8471 30.3699 32.8471 26.9986 32.8471C30.7231 29.6925 35.6355 25.0771 40.5801 20.2128ZM14.3161 28.2878C14.7422 27.8253 15.3045 27.5105 15.9215 27.3888C16.0911 27.3572 16.2628 27.3384 16.4352 27.3326H17.1737L18.6266 27.2845L21.4039 27.1801C23.8842 27.0838 26.1397 26.9714 28.1224 26.851C26.0193 29.1628 24.2213 31.2417 22.8808 32.9274H22.3189L18.7149 32.9675H16.9409C16.5261 33.0041 16.1084 32.9907 15.6967 32.9274C15.0514 32.7841 14.4805 32.4102 14.0914 31.8758C13.7042 31.3411 13.5142 30.6887 13.5536 30.0297C13.6082 29.3807 13.8764 28.7682 14.3161 28.2878ZM14.7496 36.8926C15.4785 37.06 16.2254 37.1355 16.973 37.1174H18.747L22.351 37.1575C27.1672 37.2057 32.192 37.2298 37.1927 37.2298C47.1942 37.2298 57.1957 37.1415 65.937 36.9569L69.1477 36.8846C69.5347 36.8455 69.9246 36.8455 70.3116 36.8846C70.6234 36.9408 70.9242 37.0465 71.2026 37.1977C71.7603 37.4934 72.2141 37.9528 72.503 38.5141C72.6453 38.7863 72.7454 39.0786 72.8 39.381C72.8281 39.5376 72.8468 39.6957 72.8561 39.8546V40.5288C72.9926 43.9643 73.1451 46.9503 73.3217 49.3985C68.9471 49.5671 65.1905 49.7838 62.4373 50.0487C62.1643 50.0487 61.9556 50.6106 61.9717 51.2287C61.9878 51.8467 62.1884 52.232 62.4373 52.2561C66.2902 52.6253 72.0695 52.9063 78.8442 53.0588C79.4141 53.0588 79.3258 53.0588 79.4542 53.131C79.5404 53.1719 79.615 53.2337 79.6711 53.3108C79.7272 53.3879 79.763 53.4779 79.7753 53.5725V54.4956L79.687 60.0101V62.8435V64.4489C79.687 64.4489 79.687 64.4489 79.687 64.4971C79.6885 64.5265 79.6885 64.556 79.687 64.5854C79.6483 64.6428 79.5959 64.6897 79.5345 64.7218C79.5052 64.7253 79.4755 64.7253 79.4462 64.7218H76.2595C72.3906 64.7218 68.5297 64.7218 64.7811 64.7941H63.3844H62.6861C62.4453 64.7941 62.2205 64.7941 62.068 64.7941C61.382 64.7908 60.7013 64.6741 60.0533 64.4489C58.815 64.0547 57.7241 63.2967 56.9228 62.2736C56.247 61.2711 55.8781 60.0934 55.8609 58.8846C55.8438 57.6757 56.1794 56.4881 56.8265 55.4668C57.3565 54.626 58.0606 53.9086 58.8914 53.3631C59.7223 52.8175 60.6604 52.4564 61.6426 52.3043C61.8673 52.3043 62.052 51.7343 62.0359 51.1243C62.0359 50.5865 61.8031 50.1691 61.5222 50.1611C60.2704 50.1265 59.0262 50.3677 57.878 50.8674C56.466 51.4743 55.2334 52.4333 54.298 53.6528C53.7667 54.3336 53.3318 55.0845 53.0057 55.8842C52.6674 56.7435 52.4512 57.6459 52.3635 58.5652C52.1806 60.5865 52.6534 62.613 53.712 64.3446C54.5892 65.7552 55.7967 66.9309 57.2303 67.7701C58.6638 68.6092 60.2802 69.0865 61.9396 69.1607C62.2526 69.1607 62.4774 69.1607 62.7423 69.1607H63.4406H64.8373C67.6387 69.1607 70.5203 69.2169 73.41 69.2249C73.3297 70.643 73.2548 72.2029 73.1852 73.9046L73.0648 76.9468V77.7495C73.0648 77.9983 73.0648 78.3434 73.0648 78.4879C73.0108 78.888 72.8828 79.2745 72.6876 79.6277C72.3587 80.3355 71.79 80.9042 71.0822 81.2331C70.7197 81.3942 70.3306 81.4867 69.9344 81.506H69.1317H68.1845L60.2218 81.3535C49.1688 81.1689 36.5345 81.0806 23.9002 81.0806H16.3148C16.2079 81.0869 16.1007 81.0869 15.9937 81.0806C15.4613 80.9781 14.9717 80.7183 14.5883 80.3349C14.2048 79.9515 13.9451 79.4619 13.8425 78.9294C13.8339 78.8226 13.8339 78.7152 13.8425 78.6083V78.4398V76.9949V74.6912C13.7944 68.5747 13.7221 62.6509 13.6258 57.1284C13.4894 49.1015 13.3047 41.9897 13.072 36.2585C13.6022 36.5479 14.1692 36.7639 14.7576 36.9007L14.7496 36.8926Z" fill="#333333"/>
<path d="M62.4053 61.543C63.7264 61.543 64.7973 60.4721 64.7973 59.151C64.7973 57.83 63.7264 56.759 62.4053 56.759C61.0842 56.759 60.0133 57.83 60.0133 59.151C60.0133 60.4721 61.0842 61.543 62.4053 61.543Z" fill="#127BD7"/>
<path d="M74.1164 20.293C76.2837 20.2208 79.663 16.8254 79.7352 14.6742C79.4911 14.3693 79.2227 14.0848 78.9326 13.8233C78.7055 13.5809 78.4585 13.3581 78.1941 13.1571C76.0108 13.2213 72.6234 16.5926 72.5753 18.7759C72.8192 19.0859 73.0876 19.3758 73.378 19.6428C73.6062 19.8791 73.8532 20.0965 74.1164 20.293Z" fill="#127BD7"/>
<path d="M76.7011 28.5606C76.6891 28.9039 76.7052 29.2475 76.7492 29.5881C78.2824 31.0731 82.9139 31.057 84.447 29.5881C84.4929 29.2046 84.509 28.8182 84.4952 28.4322C84.5063 28.0997 84.4902 27.7668 84.447 27.4369C82.9139 25.9359 78.2824 25.9278 76.7492 27.4369C76.7055 27.8098 76.6894 28.1854 76.7011 28.5606Z" fill="#127BD7"/>
<path d="M64.661 16.3839C65.0042 16.3959 65.3478 16.3798 65.6884 16.3357C67.1734 14.8026 67.1573 10.1711 65.6884 8.63796C65.3049 8.59199 64.9185 8.57589 64.5325 8.58979C64.2 8.57871 63.8671 8.59482 63.5372 8.63796C62.0362 10.1711 62.0281 14.8026 63.5372 16.3357C63.9101 16.3795 64.2857 16.3956 64.661 16.3839Z" fill="#127BD7"/>
</svg>
