<svg width="94" height="94" viewBox="0 0 94 94" fill="none" xmlns="http://www.w3.org/2000/svg">
<g filter="url(#filter0_d)">
<path d="M81.759 55.7452C80.0773 52.8302 76.4895 51.9332 73.5745 53.5029C73.4624 53.615 73.2381 53.7271 73.126 53.7271L68.5292 56.3058C65.8384 57.7633 63.2597 59.4451 60.7931 61.1268C61.2416 60.342 61.3537 59.333 61.0173 58.5481C60.681 57.3148 59.3356 55.7452 55.1872 55.4089C46.7785 54.8483 45.2088 53.2786 45.0967 53.1665C44.3119 52.1575 43.3028 51.3726 42.2938 50.8121C30.6336 44.1971 19.4219 54.0634 18.9734 54.3998L12.4706 57.7633C12.0221 57.9876 11.7979 58.3239 11.5736 58.7724C11.4615 59.2208 11.4615 59.6693 11.6858 60.1178L20.543 76.599C20.7673 77.0475 21.1036 77.2717 21.5521 77.496C21.6642 77.496 21.8884 77.496 22.0005 77.496C22.3369 77.496 22.6733 77.3838 22.8975 77.2717L29.5124 73.1234H29.6245C30.1851 72.787 30.8578 72.787 31.4184 73.1234C39.3787 77.3838 44.3119 78.2808 47.1148 78.2808C47.6754 78.2808 48.236 78.2808 48.7966 78.1687C50.4783 78.0565 64.8293 76.9354 79.7409 63.1449L80.9742 61.9117C82.656 60.342 82.9923 57.7633 81.759 55.7452ZM22.7854 73.5718L15.6099 60.1178L19.3097 58.2118L26.3731 71.2174L22.7854 73.5718ZM78.5076 59.5572L77.3865 60.6784C62.9233 74.1324 48.6845 74.8051 48.5723 74.8051H48.3481C46.8906 75.0294 42.6301 75.1415 33.1002 70.0962C32.3153 69.6477 31.5305 69.4235 30.6336 69.5356C30.2972 69.5356 29.9609 69.5356 29.5124 69.6477L22.3369 56.3058C25.0277 54.2877 32.988 49.4666 40.7241 53.8392C41.5089 54.2877 42.1817 54.8483 42.7422 55.521C44.3119 57.427 48.4602 58.5481 55.1872 58.9966C56.1963 58.9966 57.0932 59.2208 57.9902 59.6693C57.9902 59.7814 57.7659 60.2299 56.869 61.0147C54.6267 62.9207 48.6845 64.9388 42.1817 62.6965C41.2847 62.3601 40.3878 62.8086 40.0514 63.7055C39.8272 64.3782 40.0514 65.1631 40.612 65.6115C40.8362 65.8358 41.1726 65.9479 41.5089 66.06C42.6301 66.5085 43.7513 66.7327 44.8725 66.8448C56.9811 67.8539 62.6991 64.2661 62.6991 64.2661L70.4352 59.4451L75.1441 56.7543L75.2562 56.6421C76.3774 55.8573 78.0592 56.0816 78.844 57.2027C78.844 57.2027 78.9561 57.3148 78.9561 57.427C79.1803 58.0997 79.0682 58.9966 78.5076 59.5572Z" fill="#333333"/>
<path d="M56.3082 31.5278C55.1871 31.5278 54.2901 32.4248 54.2901 33.4338V33.5459C54.2901 34.6671 55.1871 35.5641 56.3082 35.5641C57.4294 35.5641 58.3263 34.6671 58.3263 33.5459C58.3263 32.9854 58.1021 32.5369 57.7658 32.0884C57.3173 31.7521 56.8688 31.5278 56.3082 31.5278Z" fill="#127BD7"/>
<path d="M48.9088 28.1641C50.03 28.2763 50.9269 27.3793 51.0391 26.2582C51.1512 25.137 50.2542 24.24 49.1331 24.1279C49.021 24.1279 48.9088 24.1279 48.7967 24.1279C47.6755 24.1279 46.7786 25.0249 46.7786 26.146C46.8907 27.2672 47.7877 28.1641 48.9088 28.1641Z" fill="#127BD7"/>
<path d="M47.0025 33.658C47.0025 34.1065 47.2268 34.555 47.5631 34.8913C48.2358 35.564 49.357 35.564 50.0297 34.8913L57.6537 27.1552C58.3264 26.4825 58.3264 25.4735 57.6537 24.8008C57.3173 24.4644 56.8688 24.3523 56.4204 24.3523C55.9719 24.3523 55.5234 24.5765 55.1871 24.8008L47.5631 32.4247C47.2268 32.7611 47.0025 33.2096 47.0025 33.658Z" fill="#127BD7"/>
<path d="M52.6088 43.9728C60.457 43.9728 66.7356 37.5821 66.7356 29.846C66.7356 21.9978 60.3449 15.7192 52.6088 15.7192C44.8727 15.7192 38.482 21.9978 38.482 29.846C38.482 37.6942 44.7606 43.9728 52.6088 43.9728ZM52.6088 19.0828C58.551 19.0828 63.3721 23.9038 63.3721 29.846C63.3721 35.7882 58.551 40.6093 52.6088 40.6093C46.6666 40.6093 41.8456 35.7882 41.8456 29.846C41.8456 23.9038 46.6666 19.0828 52.6088 19.0828Z" fill="#333333"/>
</g>
<defs>
<filter id="filter0_d" x="-4" y="0" width="102" height="102" filterUnits="userSpaceOnUse" color-interpolation-filters="sRGB">
<feFlood flood-opacity="0" result="BackgroundImageFix"/>
<feColorMatrix in="SourceAlpha" type="matrix" values="0 0 0 0 0 0 0 0 0 0 0 0 0 0 0 0 0 0 127 0"/>
<feOffset dy="4"/>
<feGaussianBlur stdDeviation="2"/>
<feColorMatrix type="matrix" values="0 0 0 0 0 0 0 0 0 0 0 0 0 0 0 0 0 0 0.25 0"/>
<feBlend mode="normal" in2="BackgroundImageFix" result="effect1_dropShadow"/>
<feBlend mode="normal" in="SourceGraphic" in2="effect1_dropShadow" result="shape"/>
</filter>
</defs>
</svg>
