<svg width="94" height="94" viewBox="0 0 94 94" fill="none" xmlns="http://www.w3.org/2000/svg">
<path d="M29.2249 29.5898C28.3763 29.5898 27.6819 30.2859 27.6819 31.1367V31.8173C27.6819 32.4516 27.1573 32.9775 26.5247 32.9775C25.8921 32.9775 25.3675 32.467 25.3675 31.8173V31.1367C25.3675 30.2859 24.6732 29.5898 23.8245 29.5898C22.9759 29.5898 22.2816 30.2859 22.2816 31.1367V31.8173C22.2816 34.1531 24.1948 36.0713 26.5247 36.0713C28.8546 36.0713 30.7679 34.1686 30.7679 31.8173V31.1367C30.7679 30.2859 30.0735 29.5898 29.2249 29.5898Z" fill="#333333"/>
<path d="M40.0257 36.0556C42.3556 36.0556 44.1917 34.153 44.1917 31.8017V31.1211C44.1917 30.2703 43.4974 29.5742 42.6487 29.5742C41.8001 29.5742 41.1058 30.2703 41.1058 31.1211V31.8017C41.1058 32.4359 40.6583 32.9619 40.0257 32.9619C39.3931 32.9619 38.9456 32.4514 38.9456 31.8017V31.1211C38.9456 30.2703 38.2513 29.5742 37.4026 29.5742C36.554 29.5742 35.8597 30.2703 35.8597 31.1211V31.8017C35.8597 34.153 37.6958 36.0556 40.0257 36.0556Z" fill="#333333"/>
<path d="M77.3808 58.8723C76.0384 57.5265 74.1714 56.8149 72.2582 56.9696C71.317 57.0469 70.314 57.2171 69.2648 57.4955C68.447 57.7121 67.9533 58.5629 68.1693 59.3827C68.3853 60.2026 69.2339 60.6976 70.0517 60.481C70.9158 60.249 71.749 60.1098 72.4896 60.0479C73.4925 59.9705 74.4646 60.3418 75.1589 61.0688C75.8533 61.7958 76.1927 62.7704 76.0847 63.7604C75.7916 66.4983 74.8349 70.7058 72.0884 75.6404L69.8666 71.5257C69.4808 70.8141 68.7402 70.381 67.9224 70.381C67.1047 70.3965 66.3795 70.8605 66.0091 71.5876L64.0341 75.5476C61.3185 70.6594 60.3927 66.4829 60.0841 63.7604C59.9761 62.7704 60.3156 61.7804 61.0099 61.0533C61.6425 60.4037 62.5066 60.0324 63.4015 60.0169C63.5558 60.1871 63.7718 60.481 63.9416 60.713C65.1296 62.2908 67.3515 65.2454 71.6564 64.704C72.505 64.5957 73.1068 63.8223 72.9988 62.9715C72.8908 62.1207 72.1193 61.5174 71.2707 61.6257C68.9254 61.9196 67.7218 60.6048 66.4103 58.8413C65.7005 57.8977 65.0371 57.016 63.9416 56.9232C62.0128 56.7685 60.1459 57.4801 58.8035 58.8723C57.4611 60.2644 56.813 62.1671 57.0291 64.0698C57.3839 67.3646 58.5875 72.5621 62.2443 78.564C62.6609 79.2446 63.4015 79.6468 64.1884 79.6158C64.9754 79.5849 65.6851 79.1208 66.04 78.4093L67.9841 74.5112L70.1443 78.5021C70.5146 79.1827 71.2244 79.6158 71.9959 79.6468C72.0113 79.6468 72.0267 79.6468 72.0576 79.6468C72.8136 79.6468 73.5234 79.2446 73.9091 78.5949C77.5814 72.5776 78.7849 67.3646 79.1552 64.0543C79.3713 62.1516 78.7232 60.2644 77.3808 58.8723Z" fill="#127BD7"/>
<path d="M67.4905 48.8638C61.6427 48.8638 56.4429 51.6173 53.0946 55.9176C51.1814 54.7574 49.0058 54.1387 46.7376 54.1387H40.4886V52.4526C46.0433 49.8848 50.0241 44.4862 50.5333 38.0976C52.6318 37.6335 54.2519 35.7463 54.2519 33.5034C54.2519 31.2759 52.678 29.4041 50.6722 28.9246V22.4277H52.8478C53.6964 22.4277 54.3907 21.7007 54.3907 20.8499C54.3907 14.0591 48.8823 8.50586 42.1241 8.50586H31.0765C28.6849 8.50586 26.5864 9.74336 25.3366 11.5841C19.7665 11.9245 16.8966 16.1629 16.048 20.1538C15.9862 20.4632 15.94 20.788 15.94 21.1284V28.9091C13.9341 29.4041 12.3294 31.2604 12.3294 33.4879C12.3294 35.7309 13.9341 37.618 16.048 38.0821C16.588 44.7027 20.8929 50.2715 26.7562 52.7001V54.1232H20.5071C13.7026 54.1387 8.24054 59.692 8.24054 66.5137V81.5648C8.24054 82.4155 8.87316 83.0652 9.72179 83.0652H33.3601H57.9241C58.063 83.0652 58.1864 83.0498 58.3099 83.0188C61.0101 84.5966 64.1423 85.4938 67.4905 85.4938C77.5661 85.4938 85.7593 77.2799 85.7593 67.1788C85.7593 57.0777 77.5661 48.8638 67.4905 48.8638ZM15.9554 34.7099C15.6468 34.416 15.4153 33.9984 15.4153 33.5188C15.4153 33.0393 15.6468 32.6216 15.9554 32.3123V34.7099ZM45.1175 68.1843C45.1175 69.3909 44.13 70.3809 42.9265 70.3809C41.723 70.3809 40.7355 69.3909 40.7355 68.1843C40.7355 66.9777 41.723 65.9877 42.9265 65.9877C44.13 65.9877 45.1175 66.9623 45.1175 68.1843ZM51.2122 33.5188C51.2122 33.9984 50.9808 34.416 50.6722 34.7254V32.3277C50.9808 32.6062 51.2122 33.0393 51.2122 33.5188ZM27.6048 13.889C27.6202 13.8426 27.6511 13.7807 27.6665 13.7343C28.2991 12.4968 29.5952 11.6151 31.0765 11.6151H42.1241C46.6605 11.6151 50.4407 15.0182 51.1814 19.3495H31.0765C28.9626 19.3495 27.2499 17.617 27.2499 15.4823C27.2499 14.9254 27.3734 14.3685 27.6048 13.889ZM19.0259 21.1438C19.0413 21.0355 19.0568 20.9273 19.0722 20.819C19.211 20.2002 19.6431 18.576 20.7386 17.1684C21.6335 16.0082 22.7907 15.2502 24.1948 14.9099C24.1794 15.0955 24.164 15.2966 24.164 15.4823C24.164 18.2048 25.7378 20.556 28.006 21.6852C24.6269 25.1038 20.8775 25.7071 19.0259 25.7535V21.1438ZM19.0413 36.6744V28.8473C21.8187 28.7854 27.0956 27.8573 31.5085 22.4432H47.5862V36.6744C47.5862 44.548 41.1675 50.9521 33.3138 50.9521C25.4601 50.9521 19.0413 44.5326 19.0413 36.6744ZM31.8634 79.987H11.3265V66.5291C11.3265 61.7184 14.8753 57.7584 19.6585 57.3098V60.0013C16.8812 60.7129 14.8753 63.2188 14.8753 66.1888V72.9951C14.8753 73.8459 15.5388 74.5729 16.3874 74.5729H18.3161C19.1648 74.5729 19.8591 73.8768 19.8591 73.026C19.8591 72.1752 19.1648 71.4791 18.3161 71.4791H17.9612V66.2198C17.9612 64.3945 19.3808 62.9249 21.2015 62.9249C23.0222 62.9249 24.4417 64.4099 24.4417 66.2198V71.4791H23.6394C22.7907 71.4791 22.0964 72.1752 22.0964 73.026C22.0964 73.8768 22.7907 74.5729 23.6394 74.5729H26.0618C26.9105 74.5729 27.5431 73.8459 27.5431 72.9951V66.2198C27.5431 63.2034 25.5372 60.6819 22.7599 60.0013V57.2479H27.5894L31.8634 61.7338V79.987ZM29.8421 55.0823V53.6746C30.9222 53.9066 32.1103 54.0304 33.3138 54.0304C34.7333 54.0304 36.1683 53.8602 37.4026 53.5354V55.0513L33.4218 58.9185L29.8421 55.0823ZM34.9339 61.7802L39.5937 57.2479H41.4144V63.126C39.2542 63.7912 37.665 65.8021 37.665 68.1843C37.665 71.0924 40.0257 73.4746 42.9265 73.4746C45.8273 73.4746 48.2034 71.1079 48.2034 68.1843C48.2034 65.8021 46.645 63.7912 44.4849 63.126V57.2479H46.7376C48.404 57.2479 49.9933 57.6965 51.3974 58.5163C50.0087 61.0996 49.2218 64.0541 49.2218 67.1943C49.2218 72.1752 51.2122 76.6766 54.4216 79.987H34.9339V61.7802ZM67.4905 82.431C59.1122 82.431 52.3077 75.5938 52.3077 67.2098C52.3077 58.8257 59.1276 51.9885 67.4905 51.9885C75.8534 51.9885 82.6734 58.8257 82.6734 67.2098C82.6734 75.5938 75.8534 82.431 67.4905 82.431Z" fill="#333333"/>
</svg>
