<svg width="38" height="26" viewBox="0 0 38 26" fill="none" xmlns="http://www.w3.org/2000/svg">
<path d="M30.3968 9.32332C31.2634 7.74755 32.8392 6.05361 35.518 4.43845C36.2665 4.00511 36.7392 3.21723 36.7392 2.38995C36.7392 0.696007 35.0059 -0.485817 33.4301 0.223277C28.8604 2.23238 21.2573 7.23543 21.2573 17.5961C21.2573 22.2446 24.9998 25.987 29.6483 25.987C34.2968 25.987 37.9998 22.2446 37.9998 17.6355C37.9998 13.2627 34.6513 9.71726 30.3968 9.32332Z" fill="#292929"/>
<path d="M9.67524 9.32283C10.5419 7.74707 12.1177 6.05312 14.7965 4.43796C15.545 4.00462 16.0177 3.21674 16.0177 2.38947C16.0177 0.695518 14.2843 -0.486305 12.7086 0.222789C8.17826 2.23189 0.575195 7.23494 0.575195 17.5956C0.575195 22.2441 4.31764 25.9865 8.92675 25.9865C13.5359 25.9865 17.3177 22.2441 17.3177 17.5956C17.3177 13.2622 13.9692 9.71677 9.67524 9.32283Z" fill="#292929"/>
</svg>
