<svg width="28" height="29" viewBox="0 0 28 29" fill="none" xmlns="http://www.w3.org/2000/svg">
<path d="M23.8467 0.5H4.15333C3.05275 0.503079 1.99812 0.941649 1.21988 1.71988C0.441649 2.49812 0.00307858 3.55275 0 4.65333V24.3467C0.00307858 25.4473 0.441649 26.5019 1.21988 27.2801C1.99812 28.0583 3.05275 28.4969 4.15333 28.5H23.8467C24.9473 28.4969 26.0019 28.0583 26.7801 27.2801C27.5583 26.5019 27.9969 25.4473 28 24.3467V4.65333C27.9969 3.55275 27.5583 2.49812 26.7801 1.71988C26.0019 0.941649 24.9473 0.503079 23.8467 0.5ZM25.6667 24.3467C25.6667 24.8294 25.4749 25.2923 25.1336 25.6336C24.7923 25.9749 24.3294 26.1667 23.8467 26.1667H4.15333C3.67064 26.1667 3.20772 25.9749 2.8664 25.6336C2.52508 25.2923 2.33333 24.8294 2.33333 24.3467V4.65333C2.33333 4.17064 2.52508 3.70772 2.8664 3.3664C3.20772 3.02508 3.67064 2.83333 4.15333 2.83333H23.8467C24.3294 2.83333 24.7923 3.02508 25.1336 3.3664C25.4749 3.70772 25.6667 4.17064 25.6667 4.65333V24.3467Z" fill="#127BD7"/>
<path d="M14 7.5C12.6155 7.5 11.2622 7.91054 10.111 8.67971C8.95986 9.44888 8.06266 10.5421 7.53284 11.8212C7.00303 13.1003 6.86441 14.5078 7.1345 15.8656C7.4046 17.2235 8.07129 18.4708 9.05025 19.4497C10.0292 20.4287 11.2765 21.0954 12.6344 21.3655C13.9922 21.6356 15.3997 21.497 16.6788 20.9672C17.9579 20.4373 19.0511 19.5401 19.8203 18.389C20.5895 17.2378 21 15.8845 21 14.5C21 12.6435 20.2625 10.863 18.9497 9.55025C17.637 8.2375 15.8565 7.5 14 7.5ZM14 19.1667C13.077 19.1667 12.1748 18.893 11.4073 18.3802C10.6399 17.8674 10.0418 17.1386 9.68856 16.2859C9.33535 15.4331 9.24294 14.4948 9.423 13.5896C9.60307 12.6843 10.0475 11.8528 10.7002 11.2002C11.3528 10.5475 12.1843 10.1031 13.0896 9.923C13.9948 9.74294 14.9331 9.83535 15.7859 10.1886C16.6386 10.5418 17.3674 11.1399 17.8802 11.9073C18.393 12.6748 18.6667 13.577 18.6667 14.5C18.6667 15.7377 18.175 16.9247 17.2998 17.7998C16.4247 18.675 15.2377 19.1667 14 19.1667Z" fill="#127BD7"/>
<path d="M21.5833 8.66667C22.5498 8.66667 23.3333 7.88317 23.3333 6.91667C23.3333 5.95017 22.5498 5.16667 21.5833 5.16667C20.6168 5.16667 19.8333 5.95017 19.8333 6.91667C19.8333 7.88317 20.6168 8.66667 21.5833 8.66667Z" fill="#127BD7"/>
</svg>
