<svg width="94" height="94" viewBox="0 0 94 94" fill="none" xmlns="http://www.w3.org/2000/svg">
<path d="M59.9904 29.9023L47.1254 56.5263L34.4264 29.9023L23.8854 62.0175H22.0594V65.5951H32.7664V62.1839H31.1064L36.3354 47.7903L45.7974 65.5951H48.3704L57.8324 47.6239L63.1444 62.0175H61.2354V65.5951H72.1914V62.0175H70.2824L59.9904 29.9023Z" fill="#333333"/>
<path d="M10.1094 53.5312L10.1093 53.527C10.0275 43.7605 13.7927 34.4857 20.6735 27.4235C27.6353 20.3635 36.9689 16.4248 46.8764 16.4248C67.2668 16.4248 83.8923 33.0901 83.8923 53.448C83.8923 62.0709 81.0257 70.2803 75.6195 77.0134L75.6186 77.0145C75.3545 77.3454 75.0717 77.492 74.7644 77.492H74.7568L74.7492 77.4922C72.02 77.5751 65.8888 77.5752 58.5793 77.5752C54.0986 77.5752 49.1612 77.5544 44.2951 77.5336L44.0498 77.5326C39.2685 77.5121 34.5647 77.492 30.4424 77.492H30.4132H30.384H30.3549H30.3258H30.2967H30.2677H30.2387H30.2096H30.1807H30.1517H30.1228H30.0938H30.065H30.0361H30.0072H29.9784H29.9496H29.9209H29.8921H29.8634H29.8347H29.806H29.7773H29.7487H29.7201H29.6915H29.663H29.6344H29.6059H29.5774H29.549H29.5205H29.4921H29.4637H29.4353H29.407H29.3787H29.3504H29.3221H29.2939H29.2657H29.2375H29.2093H29.1811H29.153H29.1249H29.0969H29.0688H29.0408H29.0128H28.9848H28.9569H28.9289H28.9011H28.8732H28.8453H28.8175H28.7897H28.762H28.7342H28.7065H28.6788H28.6511H28.6235H28.5959H28.5683H28.5407H28.5132H28.4857H28.4582H28.4307H28.4033H28.3759H28.3485H28.3211H28.2938H28.2665H28.2392H28.212H28.1847H28.1575H28.1304H28.1032H28.0761H28.049H28.0219H27.9949H27.9679H27.9409H27.9139H27.887H27.8601H27.8332H27.8063H27.7795H27.7527H27.7259H27.6992H27.6725H27.6458H27.6191H27.5925H27.5659H27.5393H27.5127H27.4862H27.4597H27.4332H27.4068H27.3804H27.354H27.3276H27.3013H27.275H27.2487H27.2225H27.1962H27.17H27.1439H27.1177H27.0916H27.0656H27.0395H27.0135H26.9875H26.9615H26.9356H26.9097H26.8838H26.8579H26.8321H26.8063H26.7805H26.7548H26.7291H26.7034H26.6777H26.6521H26.6265H26.601H26.5754H26.5499H26.5244H26.499H26.4736H26.4482H26.4228H26.3975H26.3722H26.3469H26.3217H26.2964H26.2713H26.2461H26.221H26.1959H26.1708H26.1458H26.1208H26.0958H26.0708H26.0459H26.021H25.9962H25.9714H25.9466H25.9218H25.8971H25.8723H25.8477H25.823H25.7984H25.7738H25.7493H25.7247H25.7003H25.6758H25.6514H25.627H25.6026H25.5783H25.5539H25.5297H25.5054H25.4812H25.457H25.4329H25.4087H25.3846H25.3606H25.3366H25.3126H25.2886H25.2647H25.2408H25.2169H25.193H25.1692H25.1455H25.1217H25.098H25.0743H25.0507H25.027H25.0035H24.9799H24.9564H24.9329H24.9094H24.886H24.8626H24.8392H24.8159H24.7926H24.7694H24.7461H24.7229H24.6998H24.6766H24.6535H24.6304H24.6074H24.5844H24.5614H24.5385H24.5156H24.4927H24.4699H24.4471H24.4243H24.4015H24.3788H24.3562H24.3335H24.3109H24.2883H24.2658H24.2433H24.2208H24.1984H24.1759H24.1536H24.1312H24.1089H24.0866H24.0644H24.0422H24.02H23.9979H23.9758H23.9537H23.9317H23.9097H23.8877H23.8658H23.8439H23.822H23.8001H23.7784H23.7566H23.7349H23.7132H23.6915H23.6699H23.6483H23.6267H23.6052H23.5837H23.5623H23.5408H23.5195H23.4981H23.4768H23.4555H23.4343H23.4131H23.3919H23.3707H23.3496H23.3286H23.3075H23.2865H23.2656H23.2446H23.2238H23.2029H23.1821H23.1613H23.1405H23.1198H23.0991H23.0785H23.0579H23.0373H23.0168H22.9963H22.9758H22.9554H22.935H22.9147H22.8943H22.8741H22.8538H22.8336H22.8134H22.7933H22.7732H22.7531H22.7331H22.7131H22.6931H22.6732H22.6533H22.6335H22.6137H22.5939H22.5742H22.5545H22.5348H22.5152H22.4956H22.4761H22.4566H22.4371H22.4176H22.3982H22.3789H22.3596H22.3403H22.321H22.3018H22.2826H22.2635H22.2444H22.2253H22.2063H22.1873H22.1684H22.1494H22.1306H22.1117H22.0929H22.0742H22.0555H22.0368H22.0181H21.9995H21.9809H21.9624H21.9439H21.9255H21.907H21.8887H21.8703H21.852H21.8338H21.8155H21.7974H21.7792H21.7611H21.743H21.725H21.707H21.6891H21.6712H21.6533H21.6354H21.6177H21.5999H21.5822H21.5645H21.5469H21.5293H21.5117H21.4942H21.4767H21.4593H21.4419H21.4245H21.4072H21.3899H21.3727H21.3555H21.3383H21.3212H21.3041H21.287H21.27H21.2531H21.2361H21.2193H21.2024H21.1856H21.1689H21.1521H21.1355H21.1188H21.1022H21.0857H21.0691H21.0527H21.0362H21.0198H21.0035H20.9871H20.9709H20.9546H20.9384H20.9223H20.9062H20.8901H20.8741H20.8581H20.8421H20.8262H20.8104H20.7946H20.7788H20.763H20.7473H20.7317H20.7161H20.7005H20.685H20.6695H20.654H20.6386H20.6232H20.6079H20.5926H20.5774H20.5622H20.547H20.5319H20.5169H20.5018H20.4868H20.4719H20.457H20.4421H20.4273H20.4125H20.3978H20.3831H20.3685H20.3539H20.3393H20.3248H20.3103H20.2959H20.2815H20.2671H20.2528H20.2386H20.2243H20.2102H20.196H20.1819H20.1679H20.1539H20.1399H20.126H20.1121H20.0983H20.0845H20.0708H20.0571H20.0434H20.0298H20.0162H20.0027H19.9892H19.9758H19.9624H19.949H19.9357H19.9225H19.9093H19.8961H19.883H19.8699H19.8568H19.8438H19.8309H19.818H19.8051H19.7923H19.7795H19.7668H19.7541H19.7414H19.7288H19.7163H19.7038H19.6913H19.6789H19.6665H19.6542H19.6419H19.6297H19.6175H19.6053H19.5932H19.5812H19.5692H19.5572H19.5453H19.5334H19.5216H19.5098H19.498H19.4864C19.1216 77.492 18.8581 77.3808 18.6322 77.0977L18.6322 77.0977L18.627 77.0914C13.139 70.4406 10.1093 62.0664 10.1094 53.5312ZM73.863 75.1639L74.1001 75.1583L74.2458 74.9713C79.0461 68.8087 81.5723 61.3787 81.5723 53.5312C81.5723 34.3698 65.9946 18.7528 46.8764 18.7528C37.609 18.7528 28.9339 22.4697 22.3694 29.0501L22.3671 29.0524C15.8835 35.636 12.3464 44.3318 12.3464 53.5312C12.3464 61.3003 15.0417 68.897 19.841 74.9739L19.9911 75.164H20.2334H20.246H20.2587H20.2714H20.2842H20.297H20.3098H20.3227H20.3355H20.3485H20.3614H20.3744H20.3874H20.4004H20.4135H20.4266H20.4398H20.453H20.4662H20.4794H20.4927H20.506H20.5193H20.5327H20.5461H20.5595H20.5729H20.5864H20.6H20.6135H20.6271H20.6407H20.6544H20.668H20.6818H20.6955H20.7093H20.7231H20.7369H20.7508H20.7647H20.7786H20.7926H20.8066H20.8206H20.8347H20.8487H20.8629H20.877H20.8912H20.9054H20.9196H20.9339H20.9482H20.9626H20.9769H20.9913H21.0058H21.0202H21.0347H21.0492H21.0638H21.0784H21.093H21.1076H21.1223H21.137H21.1517H21.1665H21.1813H21.1961H21.211H21.2259H21.2408H21.2557H21.2707H21.2857H21.3007H21.3158H21.3309H21.346H21.3612H21.3764H21.3916H21.4069H21.4221H21.4375H21.4528H21.4682H21.4836H21.499H21.5145H21.53H21.5455H21.561H21.5766H21.5922H21.6079H21.6235H21.6392H21.655H21.6707H21.6865H21.7023H21.7182H21.734H21.7499H21.7659H21.7819H21.7978H21.8139H21.8299H21.846H21.8621H21.8783H21.8944H21.9106H21.9269H21.9431H21.9594H21.9757H21.9921H22.0085H22.0249H22.0413H22.0578H22.0743H22.0908H22.1073H22.1239H22.1405H22.1572H22.1738H22.1905H22.2072H22.224H22.2408H22.2576H22.2744H22.2913H22.3082H22.3251H22.3421H22.3591H22.3761H22.3931H22.4102H22.4273H22.4444H22.4616H22.4787H22.496H22.5132H22.5305H22.5478H22.5651H22.5824H22.5998H22.6172H22.6347H22.6521H22.6696H22.6871H22.7047H22.7223H22.7399H22.7575H22.7752H22.7929H22.8106H22.8283H22.8461H22.8639H22.8817H22.8996H22.9175H22.9354H22.9533H22.9713H22.9893H23.0073H23.0254H23.0434H23.0615H23.0797H23.0978H23.116H23.1342H23.1525H23.1708H23.189H23.2074H23.2257H23.2441H23.2625H23.2809H23.2994H23.3179H23.3364H23.355H23.3735H23.3921H23.4108H23.4294H23.4481H23.4668H23.4855H23.5043H23.5231H23.5419H23.5607H23.5796H23.5985H23.6174H23.6364H23.6553H23.6743H23.6934H23.7124H23.7315H23.7506H23.7697H23.7889H23.8081H23.8273H23.8465H23.8658H23.8851H23.9044H23.9238H23.9431H23.9625H23.982H24.0014H24.0209H24.0404H24.0599H24.0795H24.0991H24.1187H24.1383H24.158H24.1776H24.1974H24.2171H24.2369H24.2567H24.2765H24.2963H24.3162H24.3361H24.356H24.3759H24.3959H24.4159H24.4359H24.456H24.476H24.4961H24.5163H24.5364H24.5566H24.5768H24.597H24.6173H24.6376H24.6579H24.6782H24.6985H24.7189H24.7393H24.7598H24.7802H24.8007H24.8212H24.8417H24.8623H24.8829H24.9035H24.9241H24.9448H24.9654H24.9862H25.0069H25.0276H25.0484H25.0692H25.0901H25.1109H25.1318H25.1527H25.1736H25.1946H25.2156H25.2366H25.2576H25.2787H25.2997H25.3208H25.342H25.3631H25.3843H25.4055H25.4267H25.448H25.4692H25.4905H25.5119H25.5332H25.5546H25.576H25.5974H25.6188H25.6403H25.6618H25.6833H25.7049H25.7264H25.748H25.7696H25.7913H25.8129H25.8346H25.8563H25.8781H25.8998H25.9216H25.9434H25.9652H25.9871H26.009H26.0309H26.0528H26.0747H26.0967H26.1187H26.1407H26.1628H26.1848H26.2069H26.229H26.2512H26.2733H26.2955H26.3177H26.3399H26.3622H26.3845H26.4068H26.4291H26.4514H26.4738H26.4962H26.5186H26.541H26.5635H26.586H26.6085H26.631H26.6536H26.6761H26.6987H26.7214H26.744H26.7667H26.7894H26.8121H26.8348H26.8576H26.8804H26.9032H26.926H26.9488H26.9717H26.9946H27.0175H27.0405H27.0634H27.0864H27.1094H27.1325H27.1555H27.1786H27.2017H27.2248H27.2479H27.2711H27.2943H27.3175H27.3407H27.364H27.3873H27.4106H27.4339H27.4572H27.4806H27.504H27.5274H27.5508H27.5743H27.5977H27.6212H27.6448H27.6683H27.6919H27.7154H27.739H27.7627H27.7863H27.81H27.8337H27.8574H27.8811H27.9049H27.9287H27.9525H27.9763H28.0001H28.024H28.0479H28.0718H28.0957H28.1197H28.1436H28.1676H28.1916H28.2157H28.2397H28.2638H28.2879H28.312H28.3362H28.3603H28.3845H28.4087H28.4329H28.4572H28.4815H28.5057H28.53H28.5544H28.5787H28.6031H28.6275H28.6519H28.6763H28.7008H28.7253H28.7498H28.7743H28.7988H28.8234H28.848H28.8726H28.8972H28.9218H28.9465H28.9712H28.9959H29.0206H29.0453H29.0701H29.0949H29.1197H29.1445H29.1693H29.1942H29.2191H29.244H29.2689H29.2939H29.3188H29.3438H29.3688H29.3938H29.4189H29.4439H29.469H29.4941H29.5193H29.5444H29.5696H29.5948H29.62H29.6452H29.6704H29.6957H29.721H29.7463H29.7716H29.7969H29.8223H29.8477H29.8731H29.8985H29.9239H29.9494H29.9749H30.0004H30.0259H30.0514H30.077H30.1026H30.1281H30.1538H30.1794H30.205H30.2307H30.2564H30.2821H30.3078H30.3336H30.3576C44.0488 75.2472 66.716 75.3305 73.863 75.1639Z" fill="#127BD7" stroke="#127BD7"/>
</svg>
