<svg width="94" height="94" viewBox="0 0 94 94" fill="none" xmlns="http://www.w3.org/2000/svg">
<path d="M21.9182 50.7523C23.0861 53.4091 24.686 57.048 24.7873 58.767C25.11 64.2484 26.2326 74.4194 30.123 80.9417C30.2626 81.1763 30.4119 81.4385 30.5701 81.7168C31.7629 83.8117 33.3957 86.68 35.9298 86.976C36.0578 86.9911 36.1955 87 36.3404 87C37.1973 87 38.3359 86.6898 39.4816 85.4588C42.3347 82.3923 42.4263 77.1872 42.4992 73.0052C42.5161 72.0693 42.5312 71.1858 42.5783 70.4321C42.7054 68.394 43.3898 61.7232 46.8696 61.4628C46.9149 61.4593 46.9567 61.4459 47.0003 61.4397C47.0447 61.4468 47.0865 61.4593 47.1318 61.4628C51.0045 61.7526 51.5573 67.6233 51.8435 74.6861C51.9386 77.0201 52.0204 79.0369 52.3635 80.4999C52.8959 82.7673 53.6959 85.2392 55.5909 86.3796C56.2255 86.7618 56.9277 86.9547 57.6636 86.9547C58.0423 86.9547 58.4298 86.9031 58.8218 86.8C61.0972 86.2018 62.3905 83.7371 63.3353 81.9381C63.53 81.5674 63.7086 81.2234 63.8784 80.939C67.7671 74.4176 68.8897 64.2475 69.2123 58.7661C69.3136 57.0462 70.9135 53.4082 72.0815 50.7514C72.7552 49.2191 73.3374 47.8956 73.6832 46.8894C77.0207 37.1753 83.2328 19.0937 71.0086 9.82047C67.8835 7.44905 63.6117 6.52911 58.9853 7.22951C56.5961 7.59038 54.5918 8.15124 52.823 8.64454C50.8125 9.20629 49.0757 9.69159 47.146 9.82047C47.0954 9.82403 47.0491 9.83736 47.0003 9.84536C46.9514 9.83825 46.9052 9.82403 46.8545 9.82047C45.7834 9.74937 44.7693 9.56182 43.7373 9.31828C43.6076 9.27473 43.4742 9.22762 43.3445 9.18584C43.1916 9.13607 43.0369 9.11474 42.8832 9.10762C42.3294 8.96274 41.7668 8.80986 41.1775 8.64454C39.4087 8.15035 37.4035 7.59038 35.0152 7.22951C30.387 6.52733 26.117 7.44905 22.991 9.82047C10.7677 19.0937 16.9789 37.1753 20.3165 46.8894C20.6622 47.8965 21.2444 49.22 21.9182 50.7523ZM25.1393 12.6532C28.3169 10.2444 32.3584 10.4231 34.4836 10.7449C36.6569 11.0737 38.4683 11.5795 40.2211 12.0692C41.061 12.3039 41.8841 12.5252 42.7134 12.7261C46.307 13.9305 49.5592 15.3544 53.4852 18.1649C53.9927 18.5284 54.5385 18.9071 55.0993 19.2946C55.4078 19.5079 55.7598 19.6092 56.1082 19.6092C56.6726 19.6092 57.2272 19.3417 57.5721 18.8422C58.1303 18.0342 57.9276 16.9276 57.1197 16.3694C56.5748 15.9926 56.046 15.6255 55.5535 15.2735C54.1207 14.2478 52.7697 13.4078 51.472 12.6799C52.2382 12.4897 53.0017 12.2852 53.7785 12.0683C55.5304 11.5786 57.3428 11.0728 59.516 10.744C61.643 10.4222 65.6845 10.2436 68.8594 12.6523C77.802 19.4359 74.8458 32.5605 70.3207 45.7339C70.0229 46.6006 69.4425 47.9214 68.8274 49.3204C67.4097 52.5451 65.8027 56.2 65.6632 58.5572C65.3592 63.7151 64.3273 73.2452 60.8243 79.1178C60.6252 79.4511 60.4137 79.8529 60.1862 80.2857C59.6591 81.291 58.6769 83.162 57.917 83.362C57.605 83.442 57.4912 83.3744 57.4228 83.3327C56.8486 82.9869 56.3108 81.7603 55.8237 79.6866C55.558 78.5534 55.478 76.6042 55.3944 74.5412C55.1189 67.7576 54.742 58.4674 47.3958 57.9163C47.2616 57.9083 47.13 57.9181 47.002 57.9377C46.8723 57.9172 46.7389 57.9075 46.6021 57.9163C42.1908 58.247 39.5011 62.6139 39.0283 70.2108C38.9758 71.0436 38.9598 71.9662 38.9429 72.9421C38.8798 76.5171 38.8025 80.9666 36.8773 83.0358C36.5697 83.3664 36.3769 83.4411 36.3422 83.4429C35.8782 83.4429 34.9743 82.2696 33.6579 79.956C33.4873 79.6555 33.3255 79.372 33.1744 79.1187C29.6724 73.247 28.6404 63.716 28.3364 58.5572C28.1978 56.2009 26.5908 52.5451 25.1722 49.3204C24.5571 47.9223 23.9767 46.6006 23.6789 45.7339C19.153 32.5614 16.1976 19.4368 25.1393 12.6532Z" fill="#333333"/>
<path d="M56.1632 36.6553C57.7827 36.6553 59.0955 35.3425 59.0955 33.723C59.0955 32.1036 57.7827 30.7908 56.1632 30.7908C54.5438 30.7908 53.2309 32.1036 53.2309 33.723C53.2309 35.3425 54.5438 36.6553 56.1632 36.6553Z" fill="#333333"/>
<path d="M37.8374 36.6553C39.4569 36.6553 40.7697 35.3425 40.7697 33.723C40.7697 32.1036 39.4569 30.7908 37.8374 30.7908C36.218 30.7908 34.9052 32.1036 34.9052 33.723C34.9052 35.3425 36.218 36.6553 37.8374 36.6553Z" fill="#333333"/>
<path d="M38.191 42.3653C37.4719 43.0337 37.4319 44.1589 38.1003 44.878C40.5064 47.4645 43.6671 48.8884 47.0002 48.8884C50.3334 48.8884 53.4941 47.4645 55.9002 44.878C56.5686 44.1589 56.5286 43.0346 55.8095 42.3653C55.0904 41.696 53.966 41.7369 53.2968 42.4559C51.5715 44.3109 49.3352 45.3322 47.0002 45.3322C44.6653 45.3322 42.4289 44.3109 40.7037 42.4559C40.0353 41.7377 38.91 41.6969 38.191 42.3653Z" fill="#127BD7"/>
</svg>
