<svg width="94" height="94" viewBox="0 0 94 94" fill="none" xmlns="http://www.w3.org/2000/svg">
<path d="M23.4799 10.0392C20.7163 10.0392 18.4399 12.3156 18.4399 15.0792V62.1192C18.4399 64.8828 20.7163 67.1592 23.4799 67.1592H41.1199V80.5992H36.9199C36.8695 80.5992 36.8107 80.5992 36.7603 80.5992C35.8363 80.6412 35.1139 81.4308 35.1559 82.3548C35.1979 83.2788 35.9959 84.0012 36.9199 83.9592H57.08C58.004 83.976 58.7684 83.2284 58.7852 82.3044C58.802 81.3804 58.0544 80.616 57.1304 80.5992C57.1136 80.5992 57.0968 80.5992 57.08 80.5992H52.88V67.1592H70.52C73.2836 67.1592 75.56 64.8828 75.56 62.1192V15.0792C75.56 12.3156 73.2836 10.0392 70.52 10.0392C69.596 10.0224 68.8316 10.77 68.8148 11.694C68.798 12.618 69.5456 13.3824 70.4696 13.3992C70.4864 13.3992 70.5032 13.3992 70.52 13.3992C71.4776 13.3992 72.2 14.1216 72.2 15.0792V62.1192C72.2 63.0768 71.4776 63.7992 70.52 63.7992H23.4799C22.5223 63.7992 21.7999 63.0768 21.7999 62.1192V15.0792C21.7999 14.1216 22.5223 13.3992 23.4799 13.3992H63.8C64.724 13.416 65.4884 12.6684 65.5052 11.7444C65.522 10.8204 64.7744 10.056 63.8504 10.0392C63.8336 10.0392 63.8168 10.0392 63.8 10.0392H23.4799ZM37.6843 20.9592C35.9371 20.9592 34.5511 21.9588 33.9043 23.5548L33.8791 23.5296L33.8035 23.6892L28.9231 33.6684C28.8979 33.7188 28.8643 33.7692 28.8475 33.828C27.6127 35.0628 26.8399 36.7764 26.8399 38.6496V48.6792C26.8399 49.6032 27.5959 50.3592 28.5199 50.3592H30.1999V54.5592C30.1999 55.4832 30.9559 56.2392 31.8799 56.2392H38.5999C39.5239 56.2392 40.2799 55.4832 40.2799 54.5592V50.3592H53.72V54.5592C53.72 55.4832 54.476 56.2392 55.4 56.2392H62.12C63.044 56.2392 63.8 55.4832 63.8 54.5592V50.3592H65.48C66.404 50.3592 67.16 49.6032 67.16 48.6792V38.6496C67.16 36.7596 66.3788 35.0292 65.1356 33.7944C65.1188 33.7524 65.102 33.702 65.0852 33.66L60.2048 23.6808L60.1292 23.5212L60.104 23.5464C59.4572 21.9504 58.0712 20.9508 56.324 20.9508H37.6843V20.9592ZM37.6843 24.3192H56.324C56.4164 24.3192 57.0212 24.7392 57.0632 24.8484C57.08 24.8988 57.0968 24.9576 57.1136 25.008L60.4736 31.8876H33.5347L36.8947 25.008C36.9115 24.9576 36.9283 24.9072 36.9451 24.8484C36.9871 24.7392 37.5919 24.3192 37.6843 24.3192ZM33.4003 35.2392H60.5996C62.3552 35.2392 63.8 36.6924 63.8 38.6496V46.9992H30.1999V38.6496C30.1999 36.6924 31.6447 35.2392 33.4003 35.2392ZM33.5599 50.3592H36.9199V52.8792H33.5599V50.3592ZM57.08 50.3592H60.44V52.8792H57.08V50.3592ZM44.4799 67.1592H49.52V80.5992H44.4799V67.1592Z" fill="#333333"/>
<path d="M32.0635 38.5809H36.2608C36.2813 38.5809 36.2915 38.5809 36.3002 38.581C37.6673 38.5905 38.7733 39.6964 38.7828 41.0636C38.7828 41.0723 38.7828 41.0825 38.7828 41.103C38.7828 41.1235 38.7828 41.1338 38.7828 41.1425C38.7733 42.5096 37.6673 43.6156 36.3002 43.6251C36.2915 43.6251 36.2813 43.6251 36.2608 43.6251H32.0635V38.5809Z" fill="#127BD7"/>
<path d="M62.3394 38.5809H58.1421C58.1216 38.5809 58.1113 38.5809 58.1026 38.581C56.7355 38.5905 55.6295 39.6964 55.62 41.0636C55.62 41.0723 55.62 41.0825 55.62 41.103C55.62 41.1235 55.62 41.1338 55.62 41.1425C55.6295 42.5096 56.7355 43.6156 58.1026 43.6251C58.1113 43.6251 58.1216 43.6251 58.1421 43.6251H62.3394V38.5809Z" fill="#127BD7"/>
</svg>
