<svg width="94" height="94" viewBox="0 0 94 94" fill="none" xmlns="http://www.w3.org/2000/svg">
<path d="M85.9998 86.4529H7.99126C7.52925 86.4529 7.16498 86.0798 7.16498 85.6266C7.16498 77.8347 13.4821 71.5176 21.274 71.5176H72.7259C80.5179 71.5176 86.835 77.8347 86.835 85.6266C86.835 86.0798 86.4618 86.4529 85.9998 86.4529ZM11.6607 83.1389H82.3304C82.8812 83.1389 83.2811 82.6147 83.1389 82.0816C81.9572 77.9057 78.1101 74.8405 73.5611 74.8405H20.4389C15.8899 74.8405 12.0427 77.9057 10.8611 82.0816C10.71 82.6058 11.1098 83.1389 11.6607 83.1389Z" fill="#333333"/>
<path d="M72.4417 74.8407C71.5265 74.8407 70.7802 74.0944 70.7802 73.1793V65.4317C70.7802 64.5166 71.5265 63.7703 72.4417 63.7703C73.3568 63.7703 74.1031 64.5166 74.1031 65.4317V73.1793C74.1031 74.0944 73.3657 74.8407 72.4417 74.8407Z" fill="#333333"/>
<path d="M72.868 52.8329C72.8058 52.8329 72.7525 52.8329 72.6903 52.824C71.7751 52.7263 71.1177 51.9089 71.2154 51.0027C71.3043 50.203 71.3398 49.3767 71.3398 48.5593C71.3398 41.7802 68.3634 35.3832 63.1835 31.003C63.068 30.9052 62.9437 30.8075 62.8193 30.7009C62.1085 30.1234 61.993 29.0839 62.5705 28.3642C63.148 27.6534 64.1875 27.5379 64.9072 28.1154C65.0494 28.2309 65.1826 28.3464 65.3248 28.4619C71.2598 33.4729 74.6627 40.794 74.6627 48.5505C74.6627 49.4834 74.6094 50.4163 74.5117 51.3403C74.4228 52.2021 73.7032 52.8329 72.868 52.8329Z" fill="#333333"/>
<path d="M48.3816 74.8406C37.1779 74.8406 27.1914 67.7239 23.5308 57.1421C23.2287 56.2803 23.6907 55.3296 24.5615 55.0275C25.4322 54.7343 26.374 55.1875 26.676 56.0582C29.8657 65.3072 38.5906 71.5177 48.3816 71.5177C54.9475 71.5177 61.2113 68.6924 65.5737 63.7791C66.1779 63.0949 67.2352 63.0327 67.9193 63.6369C68.6034 64.2411 68.6656 65.2895 68.0614 65.9825C63.0682 71.6066 55.8981 74.8406 48.3816 74.8406Z" fill="#333333"/>
<path d="M48.3816 66.5333C41.9223 66.5333 35.9251 63.0416 32.7355 57.4175C32.2823 56.6179 32.5667 55.605 33.3574 55.1519C34.157 54.6988 35.1699 54.9831 35.623 55.7738C38.2263 60.3584 43.1129 63.2104 48.3816 63.2104C56.4668 63.2104 63.0415 56.6357 63.0415 48.5505C63.0415 43.8238 60.7404 39.3547 56.8844 36.6004C56.138 36.0674 55.9692 35.0367 56.4934 34.2815C57.0265 33.5352 58.0571 33.3575 58.8124 33.8906C63.5391 37.2579 66.3644 42.7398 66.3644 48.5416C66.3555 58.4748 58.297 66.5333 48.3816 66.5333Z" fill="#333333"/>
<path d="M69.403 65.9825C64.9784 65.9825 61.3801 62.3841 61.3801 57.9595C61.3801 53.5349 64.9784 49.9365 69.403 49.9365C73.8277 49.9365 77.426 53.5349 77.426 57.9595C77.426 62.3841 73.8277 65.9825 69.403 65.9825ZM69.403 53.2594C66.8087 53.2594 64.703 55.374 64.703 57.9595C64.703 60.545 66.8176 62.6596 69.403 62.6596C71.9885 62.6596 74.1031 60.545 74.1031 57.9595C74.1031 55.3651 71.9974 53.2594 69.403 53.2594Z" fill="#333333"/>
<path d="M46.9956 58.235H13.802C12.8869 58.235 12.1406 57.4887 12.1406 56.5736C12.1406 55.6584 12.8869 54.9121 13.802 54.9121H46.9956C47.9108 54.9121 48.6571 55.6584 48.6571 56.5736C48.6571 57.4887 47.9108 58.235 46.9956 58.235Z" fill="#333333"/>
<path d="M44.5166 43.6549L39.8254 38.9637C38.1284 37.2667 38.1284 34.5302 39.8254 32.8332L59.7985 12.8601C61.4955 11.1632 64.232 11.1632 65.929 12.8601L70.6201 17.5513C72.3171 19.2483 72.3171 21.9848 70.6201 23.6818L50.6471 43.6549C48.959 45.343 46.2136 45.343 44.5166 43.6549ZM44.5166 38.9637C46.2136 40.6607 48.9501 40.6607 50.6471 38.9637L65.929 23.6818C67.626 21.9848 67.626 19.2483 65.929 17.5513C64.232 15.8543 61.4955 15.8543 59.7985 17.5513L44.5166 32.8332C42.8285 34.5213 42.8285 37.2667 44.5166 38.9637Z" fill="#127BD7"/>
<path d="M70.6293 19.666C70.1673 19.666 69.6964 19.4705 69.3676 19.0885C68.7901 18.4132 68.9056 17.3915 69.5276 16.7607L72.8682 13.42L70.0606 10.6124L66.3201 14.3529C65.7337 14.9393 64.792 15.0814 64.1256 14.6016C63.2727 13.9886 63.2016 12.7892 63.9124 12.0695L67.2886 8.69326C68.8168 7.16507 71.3045 7.16507 72.8327 8.69326L74.7874 10.6479C76.3155 12.1761 76.3155 14.6638 74.7874 16.192L71.8021 19.1773C71.4822 19.5061 71.0557 19.666 70.6293 19.666Z" fill="#127BD7"/>
</svg>
