<svg width="34" height="33" viewBox="0 0 34 33" fill="none" xmlns="http://www.w3.org/2000/svg">
<path d="M24.1833 25.9743L24.0673 25.7528L24.1833 25.9743C25.4328 25.32 26.408 24.1092 27.0076 22.4158L27.008 22.4146C27.0803 22.2069 27.0805 21.9808 27.0085 21.773C26.9364 21.5652 26.7964 21.3877 26.611 21.2694L26.6093 21.2683L21.4508 18.033L21.4415 18.0237L21.4207 18.01C21.3905 17.9901 21.3593 17.972 21.3271 17.9556C21.228 17.8935 21.1184 17.8496 21.0037 17.8261L20.9809 17.8215L20.9586 17.8211C20.9434 17.818 20.9282 17.8153 20.913 17.8129L20.8946 17.81L20.876 17.8098H20.8696C20.7092 17.8018 20.5492 17.8333 20.4039 17.9018L20.4019 17.9028C20.3521 17.9268 20.3044 17.955 20.2594 17.9871C20.2315 18.004 20.2045 18.0222 20.1785 18.0418L20.1471 18.0653L20.1244 18.0974C20.1212 18.102 20.118 18.1067 20.1148 18.1113C20.0895 18.1347 20.0655 18.1595 20.0428 18.1854L19.0415 19.1968C17.1637 18.205 15.6831 16.5953 14.3384 14.4166L15.239 13.5258C15.2609 13.5059 15.2819 13.485 15.302 13.4631C15.32 13.4463 15.3373 13.4287 15.354 13.4105L15.4188 13.3397L15.4188 13.3326L15.4642 13.2829L15.4644 13.2657L15.4706 13.2592L15.4885 13.2195C15.4997 13.1945 15.5099 13.1691 15.519 13.1431L15.5259 13.1235C15.5324 13.1108 15.5387 13.0979 15.5446 13.0848L15.5546 13.063L15.5603 13.0396C15.5664 13.0144 15.5715 12.989 15.5755 12.9633L15.5785 12.9448L15.5785 12.9381C15.5825 12.9168 15.5857 12.8954 15.5883 12.874L15.5899 12.8603L15.59 12.8466V12.8381C15.5907 12.816 15.5907 12.7939 15.59 12.7717V12.77C15.5907 12.7485 15.5907 12.727 15.59 12.7055C15.5901 12.6977 15.5901 12.6898 15.59 12.682L15.5897 12.6642L15.5869 12.6467C15.5845 12.6314 15.5817 12.6161 15.5785 12.6009L15.5784 12.5845L15.5704 12.5542C15.5602 12.5155 15.5477 12.4775 15.5329 12.4403L15.5328 12.4307L15.514 12.3856C15.4977 12.3463 15.4788 12.3081 15.4575 12.2712L15.4496 12.2556L15.4319 12.2205L15.413 12.2013L12.1906 6.9098C12.1905 6.9096 12.1904 6.9094 12.1902 6.9092C12.1059 6.76906 11.9877 6.6523 11.8464 6.56969C11.7559 6.51672 11.6577 6.47889 11.5559 6.45728V6.40827L11.281 6.43571C11.2094 6.44286 11.1388 6.4579 11.0705 6.48056C9.40499 6.99269 8.19773 7.90714 7.54049 9.12248C6.88506 10.3344 6.81006 11.7407 7.08319 13.1415C7.62813 15.9365 9.55174 18.9109 11.9567 21.3708C14.3612 23.8303 17.2823 25.8232 20.0961 26.4067C21.5077 26.6994 22.937 26.6269 24.1833 25.9743ZM12.4141 13.575L12.4141 13.575L12.4124 13.5767C12.2616 13.7289 12.165 13.9263 12.1374 14.1388C12.1098 14.3512 12.1528 14.5668 12.2597 14.7525L12.2598 14.7527C13.9555 17.6892 15.9827 20.0055 18.8411 21.2654C19.0208 21.3451 19.2202 21.3689 19.4135 21.3335C19.6069 21.2981 19.7852 21.2051 19.925 21.0668L19.9259 21.0659L20.9557 20.036L24.8725 22.484C24.4331 23.3854 23.8864 23.9188 23.2809 24.2359C22.5293 24.6294 21.594 24.7136 20.4931 24.4853C18.283 24.027 15.5733 22.2743 13.3483 19.9984C11.1231 17.7223 9.42378 14.9752 8.99441 12.773C8.78065 11.6767 8.88087 10.7626 9.26439 10.0534C9.57102 9.48642 10.0813 8.98335 10.9424 8.60092L13.3764 12.6227L12.4141 13.575ZM1.59837 31.1796L1.59836 31.1796C1.54678 31.3519 1.54372 31.535 1.58951 31.7089C1.63531 31.8828 1.72819 32.0406 1.85791 32.1651C1.98763 32.2895 2.14918 32.3759 2.32481 32.4144C2.50043 32.453 2.68328 32.4424 2.85324 32.3838L2.85328 32.3838L8.58638 30.4052C11.0368 31.8928 13.9228 32.75 17 32.75C25.9674 32.75 33.25 25.4673 33.25 16.5C33.25 7.53262 25.9674 0.25 17 0.25C8.03615 0.25 0.75 7.53236 0.75 16.5C0.75 19.7186 1.69217 22.7293 3.35456 25.319L1.59837 31.1796ZM9.24091 28.5094L9.10483 28.7192L9.2409 28.5094C9.11636 28.4286 8.97501 28.3772 8.82756 28.3592C8.6801 28.3412 8.53053 28.3571 8.39021 28.4055L8.47176 28.6418L8.3902 28.4055L4.01778 29.9144L5.3578 25.4424L5.11832 25.3706L5.35781 25.4424C5.39955 25.303 5.40967 25.1561 5.38743 25.0124C5.36519 24.8687 5.31114 24.7317 5.22924 24.6115L5.22923 24.6115C3.61301 22.2401 2.70433 19.4807 2.70433 16.5C2.70433 8.59473 9.09827 2.20433 17 2.20433C24.9055 2.20433 31.2957 8.59448 31.2957 16.5C31.2957 24.4055 24.9055 30.7957 17 30.7957C14.1337 30.7957 11.4689 29.9551 9.24091 28.5094Z" fill="#127BD7" stroke="#127BD7" stroke-width="0.5"/>
</svg>
